<?xml version="1.0" encoding="UTF-8"?>
<svg id="Livello_1" data-name="Livello 1" xmlns="http://www.w3.org/2000/svg" viewBox="0 0 210 120">
  <path d="M93.2,53.81c-.97,0-2.75.12-2.75.64v6.28c0,.19.11.27.27.2.6-.53,1.44-.75,2.48-.75,2.02,0,3.66,1.64,3.66,3.66s-1.64,3.66-3.66,3.66-3.69-1.83-3.69-3.85c-.02,0-.02-16.46-.02-16.46,0-.23-.18-.41-.41-.41h-5.67c-.23,0-.41.19-.41.41v16.66c0,6.3,4.57,10.03,10.2,10.03s10.2-4.94,10.2-10.03c0-3.94-3.18-10.02-10.2-10.02"/>
  <path d="M77.79,46.12c-1.94,0-3.52,1.58-3.52,3.52s1.58,3.52,3.52,3.52,3.52-1.58,3.52-3.52-1.58-3.52-3.52-3.52"/>
  <path d="M80.9,53.72h-6.21c-.23,0-.42.19-.42.41v19.12c0,.23.19.41.42.41h6.21c.23,0,.41-.18.41-.41v-19.12c0-.23-.19-.41-.41-.41"/>
  <path d="M116.53,61.51h-5.67c-.28,0-.13-.21-.13-.21.36-.77,1.67-1.73,3.07-1.73s2.69.98,3.08,1.73c0,0-.08.2-.34.2M113.84,53.63c-5.59,0-10.12,4.53-10.12,10.12,0,1.08.17,2.13.49,3.11,1.31,4.07,5.13,7.01,9.63,7.01s7.9-2.33,9.34-6.15c.06-.21.03-.41-.19-.41h-7.15c-.72,0-.62.1-.62.1-.41.21-.92.46-1.66.46-1.05,0-1.97-.44-2.51-1-.17-.18-.31-.38-.39-.58,0,0-.14-.33.16-.33h12.67c.3-.01.46-.6.52-.84.07-.32.01-.65.01-1.36,0-5.59-4.6-10.11-10.18-10.11"/>
  <path d="M168.2,53.83c-5.64,0-10.2,4.94-10.2,10.03,0,3.94,3.18,10.02,10.2,10.02.97,0,2.75-.12,2.75-.64v-6.28c0-.19-.11-.27-.27-.2-.6.53-1.44.75-2.48.75-2.02,0-3.66-1.64-3.66-3.66s1.64-3.66,3.66-3.66,3.69,1.83,3.69,3.85c.02,0,.02,9.2.02,9.2,0,.23.18.41.41.41h5.67c.23,0,.41-.18.41-.41v-9.4c0-6.3-4.57-10.03-10.2-10.03"/>
  <path d="M148.2,53.83c-6.97,0-9.6,5.73-9.6,9.53v9.9c0,.23.19.41.42.41h6.21c.23,0,.41-.18.41-.41v-10.56c0-1.35.94-2.83,2.51-2.83,1.35,0,2.48,1.24,2.49,2.91v10.49c0,.23.19.41.41.41h6.21c.23,0,.41-.18.41-.41v-9.92c-.02-5.25-3.78-9.5-9.47-9.5"/>
  <path d="M139.62,56.99c-.59-.97-2.84-3.17-5.47-3.17-6.97,0-9.59,5.73-9.59,9.52v9.9c0,.23.18.41.41.41h6.21c.23,0,.41-.18.41-.41v-10.56c0-1.35.71-2.84,2.28-2.84,1.15,0,1.9.74,2.16,1.26,0,0,.17.24.45-.05.28-.3,2.93-3.42,3.07-3.58.14-.16.17-.33.07-.49"/>
  <path d="M68.12,72.65c-.1-.42-.47-.73-.92-.73s-.83.31-.92.73h.92-.92c-.02.07-.03.14-.03.22,0,.52.43.95.95.95s.95-.42.95-.95c0-.08,0-.15-.03-.22Z"/>
  <path d="M62.97,72.65c-.1-.42-.47-.73-.92-.73s-.83.31-.92.73h.92-.92c-.02.07-.03.14-.03.22,0,.52.43.95.95.95s.95-.42.95-.95c0-.08,0-.15-.03-.22Z"/>
  <path d="M65.57,72.65c-.1-.42-.48-.73-.92-.73s-.83.31-.92.73h.92-.92c-.02.07-.03.14-.03.22,0,.52.43.95.95.95s.95-.42.95-.95c0-.08,0-.15-.03-.22Z"/>
  <path d="M32.54,73.8c.52,0,.95-.43.95-.95v-.19h-1.88c-.01.11-.02.2-.02.2,0,.52.43.95.95.95"/>
  <path d="M40.32,72.65h.93c-.09-.43-.47-.75-.93-.75s-.84.32-.93.75c-.01.06-.02.13-.02.2,0,.52.43.95.95.95s.95-.43.95-.95c0-.07,0-.13-.02-.2h-.93Z"/>
  <path d="M35.17,72.65h.93c-.09-.43-.47-.75-.93-.75s-.84.32-.93.75h0c-.01.06-.02.13-.02.2,0,.52.43.95.95.95s.95-.43.95-.95c0-.07,0-.13-.02-.2h-.93Z"/>
  <path d="M37.72,72.65h.93c-.09-.43-.47-.75-.93-.75s-.84.32-.93.75h0c-.01.06-.02.13-.02.2,0,.52.43.95.95.95s.95-.43.95-.95c0-.07,0-.13-.02-.2h-.93Z"/>
  <path d="M31.61,72.65h1.88c0-.1,0-.22-.01-.28-.01-.1.26-.5.54-.88h-1.95c-.19.26-.31.46-.34.54-.06.16-.09.44-.11.63"/>
  <path d="M70.05,71.62s-.05-.09-.08-.13c-.21-.36-.47-.78-.7-1.17h-2.03c.34.18.68.45.9.88.05.11.1.2.14.29.32.64.39.74.37,1.17,0,.07,0,.14,0,.22,0,.52.43.95.95.95s.95-.43.95-.96c0,0,0-.07-.04-.21-.06-.2-.18-.56-.45-1.03"/>
  <path d="M68.46,69.15h-11.58c-.25.23-.55.68-.83,1.17-.25.42-.48.85-.64,1.17h0c-.04.08-.08.15-.11.21-.33.59-.47.51-.8.51h-6.35c-.65,0-.67-.15-.82-.35-.03-.05-.13-.18-.26-.37-.21-.3-.52-.74-.83-1.17-.35-.47-.71-.93-.96-1.17,0,0,0,0-.01,0-.62-.59-1.48-.71-1.99-.71s-4.33-.04-4.82-.07-.31-.29-.26-.44c.04-.1,1.09-2.01,1.89-3.44.43-.77.78-1.4.85-1.53.2-.35.8-1.39,1.4-2.61.1-.19.17-.37.22-.54.28-.88.03-1.39-.19-1.91-.26-.62-1.02-1.26-1.7-1.41-.68-.15-.15-.47.2-.86.15-.16.18-.34.14-.5-.05-.22-.23-.42-.43-.54-.35-.22-.71.22-.93.47-.02.02-.04.05-.06.07h.18-.18c-.2.2-.4.23-.6.32-.22.09-1.37.38-2.03.57-.66.18-.82-.02-.91-.13-.09-.11-.28-.56-.38-.75h0s0,0,0-.01c-.09-.18-.2-.6-.18-.78.11-1.12.35-1.28.8-1.5s2.68-1.26,2.97-1.39c.29-.13.26-.26.26-.42,0-.6.35-.8.66-.97.31-.16,1.08-.35,2.24-.53,1.17-.18,3.94-.09,4.33-.04.38.05.4.16.38.38-.02.22.13.62.57.64.44.02.79-.6.99-.86.2-.25.71-1.71,1.9-1.09,1.19.62.33,1.99.15,2.32-.18.33-.29.82.04,1.08.33.26.82-.31,1.08-.71.26-.4.15-.69.99-.38.84.31,1.92,1.35,2.39,2.01.12.17.67,1.09,1.35,2.26h.2-.2c.89,1.53,2.01,3.47,2.72,4.67h.43-.43c.09.15.17.29.24.41.55.94,1.57,2.68,2.48,4.26.94,1.62,1.77,3.07,1.88,3.29.22.44.22.53-.22.53-.24,0-3.67,0-4.65.05-.99.06-1.59.33-2.12.79,0,0,0,0-.02,0h11.58c-.31-.29-.93-.68-1.59-.76-.79-.09-.95-.11-1.19-.51-.15-.25-1.17-1.96-2.04-3.4h-.82.82c-.53-.88-1.01-1.67-1.19-1.95-.18-.28-.87-1.4-1.67-2.73-1-1.65-2.19-3.63-2.81-4.67h0c-.17-.29-.3-.51-.37-.63-.51-.87-1.84-3.63-4-4.69-1.48-.73-.97-.89-1.35-1.37-.23-.28-1.02-1.28-2.26-1.28s-1.53.47-1.72.66c-.18.18-.15.51-1,.42-.86-.09-4.77-.22-7.14.46-1.86.53-2.04,1.41-2.15,1.64s-.04.31-.27.44-3.19,1.5-3.47,1.63c-.27.13-.71.42-.73.98,0,.39-.04,1.05.21,1.75.11.31.28.63.54.94.82,1,1.84,1.41,2.65,1.17.8-.24.29.28.15.55-.15.27-.04.75.36.93.4.18.82.11,1.3-.27.47-.38.91-.99,1.75-.42.72.49,1.02.96.69,1.78h1.17-1.17c-.06.14-.13.29-.22.45-.34.58-1.39,2.49-2.36,4.23-.87,1.58-1.67,3.01-1.78,3.2-.24.4-.31.6-.84.64-.48.03-1.39.16-2.07.83-.07.06-.13.13-.19.21-.22.27-.49.61-.75.96-.32.42-.64.84-.87,1.17h1.94c.1-.15.2-.29.29-.41.16-.24.29-.53.63-.75.31-.21.79-.36,1.64-.38,1.77-.03,5.62.04,5.99.04s.87-.09,1.43.34h0s0,0,0,0c.47.36.83.9.97,1.16.03.05.05.09.07.12.07.14.31.47-.35.49-.66.02-1.21.02-1.86.02-.36,0-.58.24-.67.54-.14.5.08,1.15.59,1.15h17.04c.3,0,.52-.65.43-1.15-.06-.3-.22-.54-.56-.56-.89-.04-2.01-.07-2.28-.07s-.36-.13-.24-.4c.02-.03.04-.08.07-.13.16-.31.49-.89.87-1.17.06-.04.12-.08.18-.1.51-.22,1.35-.26,1.95-.26s5.5.04,5.86.05c.21.01.7.07,1.17.3h2.03c-.29-.47-.55-.87-.66-1.01-.04-.05-.08-.1-.15-.15"/>
  <path d="M42.19,51.02c-.31-.14-.78-.12-1.24-.04-.46.08-.31.38-.24.61.07.23.27.51.33.6.06.09.26.07.37,0,.11-.07.76-.6.88-.73.13-.13.13-.35-.1-.45"/>
</svg>