<?xml version="1.0" encoding="UTF-8"?>
<svg id="Livello_1" data-name="Livello 1" xmlns="http://www.w3.org/2000/svg" viewBox="0 0 210 120">
  <path d="M85.52,62.08c-.1-.25-.47-.22-.47-.22l-5.33,4.88c.15.2.32.04.32.04l6.41.04s-.83-4.5-.93-4.75M112.44,72.41c-1.19-.1-1.58-.99-1.93-1.44-.35-.44-4.31-7.13-4.31-7.13l-3.56,8.61-15.1-.05-.45-2.28-10.91.05-2.4,2.27-5.7-.05-.25.15c-.54.3-3.78,1.48-7.84,2.23-4.06.74-9.68.45-11.57.3-1.88-.15-6.73-.74-10.55-2.72-3.81-1.98-4.9-3.96-5.79-5.79-.89-1.83-.77-3.61-.34-5.74.42-2.13,2.23-4.75,2.52-5.15.3-.4,3.16-3.98,8.47-6.48,5.89-2.77,11.63-3.56,11.63-3.56,0,0,3.91-.91,11.04-.91s14.01,1.53,14.26,1.56c.44.05.36.3.36.3l-2.17,4.22c-.2.05-.66-.01-1.01-.11-.35-.1-4.16-.69-6.14-.94-1.98-.25-6.39-.15-6.39-.15,0,0-4.6.4-8.32,1.68-3.71,1.29-6.19,3.31-6.19,3.31,0,0-2.57,2.13-3.46,5.39-.89,3.27.54,5.39.94,5.84.4.44,2.43,2.92,5.49,3.71,3.07.79,5.2.69,6.44.59,1.24-.1,2.28-.29,5.74-1.14,3.47-.84,7.53-4.01,7.53-4.01,0,0,7.38-6.39,8.42-7.32,1.04-.94,2.62-1.09,3.07-1.14.45-.05,8.7-.06,8.7-.06,0,0,2.29,12.08,2.39,12.43.1.34.25.1.25.1l5.2-12.62h9.01s4.85,8.16,5.1,8.41c.25.25.25.05.25.05l3.5-8.44h8.54l-6.64,16.01s-6.63.1-7.82,0M144.31,62.45c-.09-.23-.55-1.38-2.56-1.77-1.76-.34-5.58-.15-5.58-.15l-3.18,7.67c.35.15.45.15.45.15,0,0,4.35.1,5.35,0,.99-.1,2.93-.86,3.15-1.05.25-.22,1.13-.72,1.8-1.75,1.03-1.57.77-2.63.59-3.1M153.18,63.31c-.23,2.18-1.16,3.27-1.16,3.27,0,0-1.12,2.04-4.31,3.64-2.64,1.33-4.83,1.65-5.08,1.7-.25.05-4.65.54-6.29.54h-12.48l-1.09.05-.29-.08,6.67-16,13.77.05s3.66.05,6.04,1.14c2.38,1.09,2.77,1.63,2.97,1.83.2.2,1.47,1.67,1.24,3.86M175.3,59.72l-11.42,11.46s-1.54,1.44-2.62,1.93-3.17.74-3.17.74l-6.44.05,5.7-5.14s.05-.05-.05-.35c-.1-.3-4.79-11.97-4.79-11.97l7.56-.06,2.62,7.39,6.59-7.29,9.3-.05-3.28,3.29Z"/>
</svg>