<?xml version="1.0" encoding="UTF-8"?>
<svg id="Livello_1" data-name="Livello 1" xmlns="http://www.w3.org/2000/svg" viewBox="0 0 210 120">
  <path d="M145.22,77.29h-80.51c-9.53,0-17.27-7.73-17.27-17.27s7.73-17.27,17.27-17.27h80.51c9.53,0,17.27,7.74,17.27,17.27s-7.73,17.27-17.27,17.27M145.52,40.36h-81.04c-10.84,0-19.63,8.79-19.63,19.63s8.79,19.64,19.63,19.64h81.04c10.84,0,19.63-8.79,19.63-19.64s-8.79-19.63-19.63-19.63"/>
  <path d="M102.06,57.4c-.95,0-.84,1.1-.84,1.76v3.4c0,.63-.06,1.6.82,1.6s.84-.97.84-1.6v-3.4c0-.63.13-1.76-.82-1.76"/>
  <path d="M125.53,59.31v2.59c0,.63,0,1.66.9,1.66.24,0,.56-.07.78-.21v-5.26c-.22-.15-.52-.24-.8-.24-.87,0-.87.78-.87,1.45"/>
  <path d="M77.84,57.4c-.78,0-.86.73-.86,1.2v.45h1.72v-.45c0-.47-.07-1.2-.86-1.2"/>
  <path d="M64.92,54.15h-.39v9.13h.39c1.08,0,1.42-.4,1.42-1.55v-6.03c0-1.16-.34-1.55-1.42-1.55"/>
  <path d="M151.44,66.66h-5.5v-2.63c.58-.36.54-.88.54-1.47v-3.48c0-.6.06-1.19-.54-1.55v-2.64h4.94v7.58c0,.59-.06,1.19.56,1.55v2.63ZM148.51,50.52c1.1,0,2.37.6,2.37,1.86s-1.25,1.81-2.33,1.81c-1.16,0-2.42-.56-2.42-1.88s1.31-1.79,2.39-1.79M144.88,66.66h-4.68c-.26-1.19-.24-2.44-.24-3.66v-3.44c0-.07.05-.61-.13-1.04-.29-.45-.78-.78-1.51-.45v4.41c0,.58-.06,1.23.54,1.55v2.63h-5.48v-2.63c.58-.34.54-.88.54-1.47v-7.71c.02-.6.06-1.23-.56-1.55v-2.63h4.96v4.76c1.01-.6,2.06-.8,2.98-.77.92.04,1.72.34,2.17.78.8.77.9,1.63.9,2.63v4.41c0,.58-.06,1.23.52,1.55v2.63ZM132.15,57.53c-.58.35-.54.86-.54,1.45v7.13c0,1.32.05,3.12-.97,4.11-1.01.99-2.71,1.16-4.05,1.16-1.96,0-3.43-.3-5.15-1.25v-2.82h4.09c0,.26.02.6.13.85.13.26.34.45.69.45.97,0,.86-1.16.86-1.83v-.75c-.78.6-1.76.86-2.59.86-2.22,0-3.49-1.08-3.49-3.65v-4.42c0-2.56.65-4.16,3.28-4.16,1.04,0,2.07.28,2.91.92v-.68h4.83v2.64ZM119.93,66.66h-4.68c-.27-1.19-.24-2.44-.24-3.66v-3.44c0-.07.05-.61-.13-1.04-.29-.45-.78-.78-1.51-.45v4.41c0,.58-.06,1.23.54,1.55v2.63h-5.48v-2.63c.58-.34.54-.88.54-1.47v-3.57c0-.64.02-1.04-.54-1.45v-2.64h4.76v.73c1.19-.81,2.24-1.01,3.17-.97.92.04,1.72.34,2.17.78.8.77.9,1.63.9,2.63v4.41c0,.58-.06,1.23.52,1.55v2.63ZM107.28,62.18c0,1.31-.04,2.78-1.1,3.69-1.06.91-2.63,1.02-3.97,1.02-1.21,0-2.93-.1-3.96-.78-1.44-.95-1.44-2.39-1.44-3.93v-3.06c0-1.27.02-2.65,1.12-3.51,1.06-.83,2.5-.95,3.82-.95,1.19,0,2.98.09,4.01.69,1.42.86,1.51,2.27,1.51,3.77v3.06ZM95.67,66.66h-11.64v-2.84c.6-.37.54-.97.54-1.57v-7.18c0-.6.06-1.2-.54-1.57v-2.83h6.07v2.83c-.6.37-.54.97-.54,1.57v8.19h.48c1.27,0,1.25-.76,1.25-1.77v-2.59h4.38v7.76ZM83.02,58.95v2.78h-6.05v1.08c-.02.58.05,1.35.82,1.35s.82-.7.82-1.29v-.43h4.4v2.95c-.97.84-2.78,1.38-4.59,1.51-1.79.13-3.6-.17-4.57-.9-1.23-.91-1.28-2.22-1.28-3.64v-3.19c-.07-3.21,1.01-4.49,5.13-4.52,4.33-.02,5.39,1.42,5.32,4.3M71.32,61.56c0,1.57-.07,2.78-1.29,3.92-1.14,1.08-2.56,1.18-4.07,1.18h-7.06v-2.84c.56-.24.62-.73.64-1.26v-7.78c-.02-.56-.06-1.03-.64-1.27v-2.83h6.91c1.36,0,2.93.02,4.07.9,1.31,1.03,1.44,2.48,1.44,4.01v5.99ZM73.14,52.46h9.49v.82h-9.49v-.82ZM145.31,46.35h-80.47c-7.54,0-13.65,6.11-13.65,13.65s6.11,13.65,13.65,13.65h80.47c7.54,0,13.65-6.11,13.65-13.65s-6.11-13.65-13.65-13.65"/>
</svg>