<?xml version="1.0" encoding="UTF-8"?>
<svg id="Livello_1" data-name="Livello 1" xmlns="http://www.w3.org/2000/svg" viewBox="0 0 210 120">
  <g>
    <path d="M115.48,60.81l.29-1.15s.22-.71-.08-.95c-.18-.14-.57-.14-.57-.14h-3.72s-.53.01-.84.14c-.41.17-.62.95-.62.95l-.28,1.14h5.83ZM120.85,64.97h-12.24l-.33,1.64s-.39.68.16,1.08c.38.27,1.19.22,1.19.22h12.48l-.72,3.09h-15.53c-2.64,0-3.96-1.17-3.96-3.49,0-.51.06-1.06.2-1.66l1.07-5.24c.31-1.59.95-2.8,2.08-3.79,1.15-1.02,2.51-1.52,4.06-1.52h9.53c2.2,0,3.3,1.13,3.3,3.39,0,.23-.02.55-.05.9-.05.43-.12.69-.18,1.11l-1.06,4.27Z"/>
    <path d="M84.98,58.59c-2.28,0-3.19,2.65-3.19,2.65l-2.28,9.76h-7.06l2.89-12.52s.31-1.6,1.91-2.43c1.46-.75,3.45-.75,5.33-.75l-.56,2.23c.34-.44.97-1.04,1.75-1.48,1.38-.78,2.38-.75,4-.75h1.86s-.69,2.7-.79,3.29h-3.87Z"/>
  </g>
  <path d="M93.15,55.3l-3.68,15.7h6.71l3.68-15.7h-6.72ZM94.66,48.99l-.66,3.08h6.7l.66-3.08h-6.7Z"/>
  <g>
    <path d="M140.55,71.01h-10.62c-1.36,0-2.32-.25-2.89-.76-.57-.51-.86-1.3-.86-2.38,0-.61.11-1.45.32-2.51l1.62-7.43h-2.37l.62-2.63h2.39l.65-2.57h6.92l-.45,2.57h6.79l-.67,2.63h-6.88l-1.93,8.69s-.14.73.17.91c.66.38,1.59.29,1.59.29h6.39l-.78,3.19Z"/>
    <path d="M157.91,60.81l.29-1.15s.22-.71-.08-.95c-.18-.14-.57-.14-.57-.14h-3.72s-.53.01-.84.14c-.41.17-.62.95-.62.95l-.28,1.14h5.83ZM163.28,64.97h-12.24l-.33,1.64s-.39.68.16,1.08c.38.27,1.19.22,1.19.22h25.3l-.72,3.09h-28.34c-2.64,0-3.96-1.17-3.96-3.49,0-.51.06-1.06.2-1.66l1.07-5.24c.31-1.59.95-2.8,2.08-3.79,1.15-1.02,2.51-1.52,4.06-1.52h9.53c2.2,0,3.3,1.13,3.3,3.39,0,.23-.02.55-.05.9-.05.43-.12.69-.18,1.11l-1.06,4.27Z"/>
    <path d="M62.75,58.59l.77-3.34s.28-.76-.24-1.32c-.28-.3-.69-.55-1.2-.51l-3.19.04c-.49-.01-.92.19-1.22.37-.55.34-.81,1.32-.81,1.32l-.79,3.44h6.68ZM67.74,71.01h-8.2l2.05-8.41h-6.59l-2.05,8.41h-8.23l2.12-8.81h-14.2l1.06-3.6h14.01l1.08-4.5c.32-1.33,1.04-2.38,2.15-3.15,1.12-.77,2.51-1.15,4.17-1.15h12.4c1.41,0,2.5.27,3.28.82.77.52,1.16,1.32,1.16,2.39l-.14,1.09-4.06,16.91Z"/>
    <path d="M166.79,56.02h.39c.19,0,.32-.03.38-.09.07-.05.1-.13.1-.22,0-.06-.02-.11-.05-.16-.03-.05-.08-.08-.14-.11-.06-.02-.17-.03-.32-.03h-.37v.61ZM166.46,57.15v-2.01h.69c.24,0,.41.02.51.06.11.04.19.1.25.19.06.1.1.19.1.3,0,.15-.05.27-.16.38-.11.11-.25.17-.42.18.07.03.13.06.17.11.08.08.18.21.3.4l.24.39h-.4l-.18-.32c-.14-.25-.25-.4-.34-.47-.06-.04-.15-.07-.26-.07h-.19v.85h-.32ZM167.28,54.56c-.26,0-.52.06-.77.2-.25.13-.44.33-.58.58-.14.25-.21.51-.21.78s.07.52.2.77c.14.25.33.44.58.58.25.14.5.2.77.2s.52-.07.77-.2c.25-.14.44-.33.58-.58.14-.25.2-.5.2-.77s-.07-.53-.21-.78-.33-.44-.58-.58c-.25-.14-.5-.2-.76-.2M167.28,54.25c.31,0,.62.08.92.24.3.16.53.39.7.69.17.3.25.61.25.94s-.08.63-.25.93c-.16.3-.39.53-.69.69-.29.16-.6.25-.93.25s-.63-.08-.93-.25c-.29-.16-.52-.4-.69-.69-.17-.3-.25-.61-.25-.93s.08-.64.25-.94c.17-.3.4-.53.7-.69.3-.16.6-.24.92-.24"/>
  </g>
</svg>