<?xml version="1.0" encoding="UTF-8"?>
<svg id="Livello_1" data-name="Livello 1" xmlns="http://www.w3.org/2000/svg" viewBox="0 0 210 120">
  <g>
    <rect x="52.12" y="48.99" width="6.5" height="21.79"/>
    <polygon points="63.8 48.99 63.8 70.78 80.62 70.78 80.62 66.45 70.3 66.45 70.3 61.99 79.35 61.99 79.35 57.79 70.3 57.79 70.3 53.33 80.62 53.33 80.62 48.99 63.8 48.99"/>
    <polygon points="153.38 48.99 153.38 62.37 145.22 48.99 138.08 48.99 138.08 70.78 142.67 70.78 142.67 57.34 150.89 70.78 157.96 70.78 157.96 48.99 153.38 48.99"/>
    <polygon points="117.2 48.99 117.2 70.78 134.02 70.78 134.02 66.45 123.7 66.45 123.7 61.99 132.74 61.99 132.74 57.79 123.7 57.79 123.7 53.33 134.02 53.33 134.02 48.99 117.2 48.99"/>
    <polygon points="104.39 48.99 98.4 61.93 92.66 48.99 84.19 48.99 84.19 70.78 89.41 70.78 89.41 57.79 95.15 70.78 99.42 70.78 105.6 57.47 105.6 70.78 112.1 70.78 112.1 48.99 104.39 48.99"/>
    <path d="M45.12,59c-1.85-.83-4.72-2.29-6.69-3.18-1.86-.84-1.91-5.23,8.79-1.98v-4.14c-2.23-.77-8.34-2.23-12.93.32-4.59,2.55-3.5,8.85,0,10.96,1.53.83,3.63,1.59,6.31,2.74,2.22.95,3.57,5.8-9.11,2.48v4.27c2.61.96,12.17,1.98,14.97-1.15,3.5-3.9,1.91-8.98-1.34-10.32"/>
    <path d="M175.45,59c-1.85-.83-4.71-2.29-6.69-3.18-1.86-.84-1.91-5.23,8.79-1.98v-4.14c-2.23-.77-8.35-2.23-12.94.32-4.58,2.55-3.5,8.85,0,10.96,1.53.83,3.63,1.59,6.31,2.74,2.21.95,3.57,5.8-9.11,2.48v4.27c2.61.96,12.17,1.98,14.97-1.15,3.5-3.9,1.91-8.98-1.34-10.32"/>
  </g>
  <g>
    <rect x="52.12" y="48.99" width="6.5" height="21.79"/>
    <polygon points="63.8 48.99 63.8 70.78 80.62 70.78 80.62 66.45 70.3 66.45 70.3 61.99 79.35 61.99 79.35 57.79 70.3 57.79 70.3 53.33 80.62 53.33 80.62 48.99 63.8 48.99"/>
    <polygon points="153.38 48.99 153.38 62.37 145.22 48.99 138.08 48.99 138.08 70.78 142.67 70.78 142.67 57.34 150.89 70.78 157.96 70.78 157.96 48.99 153.38 48.99"/>
    <polygon points="117.2 48.99 117.2 70.78 134.02 70.78 134.02 66.45 123.7 66.45 123.7 61.99 132.74 61.99 132.74 57.79 123.7 57.79 123.7 53.33 134.02 53.33 134.02 48.99 117.2 48.99"/>
    <polygon points="104.39 48.99 98.4 61.93 92.66 48.99 84.19 48.99 84.19 70.78 89.41 70.78 89.41 57.79 95.15 70.78 99.42 70.78 105.6 57.47 105.6 70.78 112.1 70.78 112.1 48.99 104.39 48.99"/>
    <path d="M45.12,59c-1.85-.83-4.72-2.29-6.69-3.18-1.86-.84-1.91-5.23,8.79-1.98v-4.14c-2.23-.77-8.34-2.23-12.93.32-4.59,2.55-3.5,8.85,0,10.96,1.53.83,3.63,1.59,6.31,2.74,2.22.95,3.57,5.8-9.11,2.48v4.27c2.61.96,12.17,1.98,14.97-1.15,3.5-3.9,1.91-8.98-1.34-10.32"/>
    <path d="M175.45,59c-1.85-.83-4.71-2.29-6.69-3.18-1.86-.84-1.91-5.23,8.79-1.98v-4.14c-2.23-.77-8.35-2.23-12.94.32-4.58,2.55-3.5,8.85,0,10.96,1.53.83,3.63,1.59,6.31,2.74,2.21.95,3.57,5.8-9.11,2.48v4.27c2.61.96,12.17,1.98,14.97-1.15,3.5-3.9,1.91-8.98-1.34-10.32"/>
  </g>
</svg>