<?xml version="1.0" encoding="UTF-8"?>
<svg id="Livello_1" data-name="Livello 1" xmlns="http://www.w3.org/2000/svg" viewBox="0 0 210 120">
  <path d="M73.03,64.83c0,3.67-3.39,6.08-6.8,6.08h-11.13v-21.78h10.2c3.93,0,6.77,1.96,6.77,5.98,0,3.44-3.01,4.47-3.01,4.47,0,.03,3.96.93,3.96,5.24M66.52,55.72c0-1.22-.83-2.06-2.08-2.06h-3.98v4.05h3.89c1.41,0,2.18-1.03,2.18-2M67.22,64.21c0-1.25-.93-2.13-2.87-2.13h-3.89v4.28h3.98c1.63,0,2.77-.58,2.77-2.16"/>
  <path d="M95.05,60c0,6.4-3.67,11.42-10.02,11.42s-10.02-5.02-10.02-11.42,3.7-11.42,10.02-11.42,10.02,5.05,10.02,11.42M89.69,60c0-3.41-1.55-6.18-4.66-6.18s-4.63,2.77-4.63,6.18,1.54,6.21,4.63,6.21,4.66-2.76,4.66-6.21"/>
  <path d="M113.75,64.31c0,4.79-4.34,7.11-8.42,7.11-4.72,0-7.15-1.8-9.06-4.09l3.48-3.41c1.46,1.87,3.38,2.8,5.52,2.8,1.75,0,2.93-.87,2.93-2.16,0-1.38-1.04-1.81-3.89-2.41l-.77-.16c-3.44-.72-6.25-2.67-6.25-6.56,0-4.28,3.48-6.85,8.07-6.85,3.89,0,6.41,1.67,7.94,3.41l-3.38,3.35c-1.05-1.13-2.65-2.03-4.47-2.03-1.24,0-2.65.58-2.65,2.03,0,1.32,1.46,1.8,3.32,2.19l.77.16c3.1.65,6.85,1.61,6.85,6.63"/>
  <path d="M134.47,66.69c-2.23,3.22-4.3,4.73-8.61,4.73-6.13,0-10.08-5.08-10.08-11.55s3.57-11.26,10.14-11.26c3.61,0,6.19,1.42,8.39,4.73l-4.4,2.93c-.89-1.54-2.04-2.44-3.95-2.44-2.43,0-4.75,2.17-4.75,6.04,0,4.35,2.52,6.34,4.91,6.34,2.07,0,3.03-1.03,3.92-2.51l4.44,2.99Z"/>
  <polygon points="149.16 49.13 149.16 57.14 142.55 57.14 142.55 49.13 136.84 49.13 136.84 70.91 142.55 70.91 142.55 62.32 149.16 62.32 149.16 70.91 154.9 70.91 154.9 49.13 149.16 49.13"/>
</svg>