<?xml version="1.0" encoding="UTF-8"?>
<svg id="Livello_1" data-name="Livello 1" xmlns="http://www.w3.org/2000/svg" viewBox="0 0 210 120">
  <polygon points="60.19 46.91 53.76 68.55 58.3 68.55 64.73 46.91 60.19 46.91"/>
  <polygon points="82.39 46.91 82.21 46.91 82.21 47.31 75.41 62.22 74.75 46.91 74.46 46.91 71.34 46.91 69.93 46.91 59.34 73.19 63.88 73.19 71.65 53.9 72.29 68.65 72.48 68.65 75.69 68.65 76.36 68.65 82.21 55.82 82.21 68.65 86.75 68.65 86.75 46.91 86.27 46.91 82.39 46.91"/>
  <polygon points="96.66 47 94.88 47 88.45 68.65 92.99 68.65 92.99 68.65 102.35 68.65 102.91 65.62 93.89 65.62 96.05 58.34 103.76 58.34 104.33 55.32 96.94 55.32 98.54 49.93 107.07 49.93 107.64 46.91 96.67 46.91 96.66 47"/>
  <polygon points="124.48 49.93 125.31 46.91 109.14 46.91 108.3 49.93 114.61 49.93 109.06 68.65 113.6 68.65 119.15 49.93 124.48 49.93"/>
  <polygon points="131.2 49.84 139.73 49.84 140.29 46.81 129.33 46.81 129.31 46.91 127.54 46.91 121.11 68.55 125.64 68.55 125.64 68.55 135 68.55 135.57 65.53 126.54 65.53 128.7 58.25 136.42 58.25 136.99 55.23 129.6 55.23 131.2 49.84"/>
  <path d="M148.57,50.02h7.02l.65-3.1h-7.67c-3.4,0-6.6,2.09-7.26,5.28l-2.17,10.51c-.33,1.59.19,3.21,1.27,4.27,1.07,1.06,2.62,1.62,4.32,1.62l6.84.04.65-3.11-7.48-.02h-.01c-1.02,0-1.74-.34-2.14-.73s-.54-.81-.41-1.45l2.17-10.5c.27-1.29,2.19-2.81,4.22-2.81Z"/>
</svg>