<?xml version="1.0" encoding="UTF-8"?>
<svg id="Livello_1" data-name="Livello 1" xmlns="http://www.w3.org/2000/svg" viewBox="0 0 210 120">
  <g>
    <path d="M72.53,61.99c0,2.97-1.45,5.73-4.75,5.73s-4.75-2.75-4.75-5.73,1.45-5.73,4.75-5.73,4.75,2.76,4.75,5.73M77.52,61.99c0-6.12-3.62-9.78-9.74-9.78s-9.73,3.65-9.73,9.78,3.62,9.77,9.73,9.77,9.74-3.66,9.74-9.77"/>
    <path d="M36.59,71.36v-23.13h13.86c1.91,0,3.74.53,5.04,2.01,1.04,1.19,1.48,2.72,1.48,4.28,0,1.87-.6,3.71-2.09,4.93-1.36,1.13-3.06,1.42-4.78,1.45l8.53,10.46h-6.51l-8.78-10.97v-3.4h5.71c1.68,0,2.75-.62,2.75-2.48,0-1.74-1.24-2.32-2.75-2.32h-7.3v19.17h-5.17Z"/>
  </g>
  <polygon points="99.31 52.69 96.75 64.51 93.42 52.69 88.54 52.69 85.18 64.51 82.69 52.69 77.64 52.69 82.69 71.36 87.46 71.36 91.01 59.05 94.59 71.36 99.31 71.36 104.33 52.69 99.31 52.69"/>
  <g>
    <path d="M111.23,59.99h6.32c-.13-1-.39-1.91-1.15-2.63-.74-.7-1.76-1.09-2.78-1.09-3.03,0-4.22,2.59-4.22,5.27,0,3.8,1.6,5.91,5.52,5.91h7.67v3.91h-8.56l-1.49.02c-2.81.04-5.45-1.92-6.8-4.29-.94-1.66-1.35-3.61-1.35-5.51,0-5.36,3.86-9.25,9.21-9.25,2.59,0,5.21.71,6.99,2.68,1.65,1.81,1.98,3.85,1.98,6.19v2.51h-11.37v-3.73Z"/>
    <path d="M125.68,71.36v-18.67h11.53c1.58,0,3.03.37,4.13,1.6.96,1.06,1.36,2.47,1.36,3.87v13.2h-5.01v-12.65c0-1.51-1.23-2.05-2.54-2.05h-4.4v14.7h-5.07Z"/>
  </g>
  <polygon points="145.87 48.46 145.87 71.36 150.95 71.36 150.95 56.66 154.02 56.66 154.02 52.69 150.95 52.69 150.95 48.46 145.87 48.46"/>
  <path d="M166.61,67.44l-3.1-9.17c-.37-1.09-1.4-1.61-2.51-1.61h-4.54v-3.97h7.05c2.54,0,3.85,1.3,4.64,3.59l5.25,15.08h-14c-3.22,0-5.84-2.43-5.84-5.71,0-1.65.71-3.28,1.97-4.34,1.26-1.05,2.71-1.33,4.29-1.33h2.27l1.41,4h-2.51c-1.15,0-2.26.47-2.26,1.79,0,.88.62,1.67,1.54,1.67h6.32Z"/>
</svg>