<?xml version="1.0" encoding="UTF-8"?>
<svg id="Livello_1" data-name="Livello 1" xmlns="http://www.w3.org/2000/svg" viewBox="0 0 210 120">
  <path d="M160.27,71.09c.18,0,.33-.15.33-.33v-2.29c0-.18-.15-.33-.33-.33h-3.06c-.72,0-2.61-.03-3.65-.55-.34-.16-.6-.35-.77-.58-.15-.21-.23-.47-.23-.79v-16.95c0-.18-.15-.33-.33-.33h-6.68c-.18,0-.33.15-.33.33v16.41c0,.87.2,1.67.57,2.23.41.6,1.03,1.21,1.85,1.66,2.52,1.37,6.98,1.53,8.72,1.52h3.9Z"/>
  <path d="M70.82,70.99c.18,0,.33-.15.33-.33v-18.73h8.1c.18,0,.33-.15.33-.33v-2.3c0-.18-.15-.33-.33-.33h-23.53c-.18,0-.33.14-.33.33v2.3c0,.18.15.33.33.33h8.08v18.73c0,.18.14.33.33.33h6.68Z"/>
  <path d="M100.11,70.99c.18,0,.33-.14.33-.33v-2.29c0-.18-.15-.33-.33-.33h-13.05c-.71,0-2.61-.03-3.64-.55-.34-.16-.6-.36-.77-.58-.15-.21-.23-.47-.23-.79v-1.22h6.65c1.73,0,6.31-.09,8.83-1.32.82-.41,1.45-.86,1.85-1.41.87-1.15.94-3.47,0-4.72-.41-.54-1.03-1-1.85-1.41-2.52-1.23-7.1-1.32-8.83-1.32h-2.86c-1.73,0-6.31.13-8.83,1.37-.82.41-1.44.96-1.85,1.5-.37.5-.57,1.23-.57,2.01v6.52c0,.78.2,1.51.57,2.01.41.54,1.03,1.09,1.85,1.5,2.52,1.23,7.1,1.38,8.83,1.37h13.89ZM92.88,60.02c0,.32-.08.58-.24.79-.17.22-.42.41-.76.58-1.04.51-2.93.55-3.65.55h-5.83v-2.56c0-.32.08-.58.23-.79.17-.22.43-.41.77-.58,1.04-.51,2.93-.55,3.65-.55h1.18c.71,0,2.61.04,3.65.55.34.17.59.36.76.58.16.21.24.47.24.79v.64Z"/>
  <path d="M140.86,57.69c-.41-.54-1.03-1.09-1.85-1.5-2.52-1.23-7.1-1.38-8.83-1.37h-3.56s0,0,0,0h-7.83c-.18,0-.33.15-.33.33v2.29c0,.18.15.33.33.33h10.55c.72,0,2.61.03,3.65.54.34.17.59.36.76.58.15.21.24.47.24.79v1.1h-6.66c-1.73,0-6.31.09-8.83,1.32-.82.41-1.45.87-1.85,1.41-.92,1.23-.93,3.6,0,4.84.41.54,1.03,1,1.85,1.41,2.52,1.23,7.1,1.32,8.83,1.32h2.86c1.74,0,6.31-.13,8.83-1.37.82-.41,1.44-.96,1.85-1.5.37-.5.57-1.23.57-2.01v-6.52c0-.78-.2-1.5-.57-2.01M133.99,66.43c0,.32-.08.58-.24.79-.17.22-.42.41-.76.58-1.04.51-2.93.55-3.65.55h-1.18c-.72,0-2.61-.04-3.65-.55-.34-.17-.59-.36-.77-.58-.15-.21-.23-.47-.23-.79v-.75c0-.32.08-.58.23-.79.17-.22.43-.41.77-.58,1.04-.51,2.93-.55,3.65-.55h5.83v2.67Z"/>
  <path d="M156.49,49.99v-.35h.25c.12,0,.24,0,.24.16,0,.18-.11.19-.26.19h-.24ZM156.49,50.18h.16l.33.52h.25l-.35-.53c.23-.02.33-.17.33-.35,0-.22-.14-.36-.4-.36h-.55v1.25h.23v-.52Z"/>
  <path d="M156.71,48.9c-.64,0-1.17.52-1.17,1.17s.53,1.17,1.17,1.17,1.17-.53,1.17-1.17-.52-1.17-1.17-1.17M156.71,51.02c-.53,0-.95-.43-.95-.95s.42-.95.95-.95.95.42.95.95-.42.95-.95.95"/>
  <path d="M103.57,70.66c0,.19.14.33.33.33h6.67c.18,0,.33-.14.33-.33v-12.88h4.08c.18,0,.33-.15.33-.33v-2.29c0-.18-.15-.33-.33-.33h-4.08v-1.02c0-.32.08-.58.23-.79.17-.22.43-.42.77-.58,1.04-.51,3.06-.55,3.77-.55h2.93c.18,0,.33-.15.33-.33v-2.3c0-.18-.15-.33-.33-.33h-3.77c-1.73-.01-6.31.15-8.83,1.52-.82.45-1.44,1.06-1.85,1.66-.38.56-.57,1.36-.57,2.43v16.11Z"/>
</svg>