<?xml version="1.0" encoding="UTF-8"?>
<svg id="Livello_1" data-name="Livello 1" xmlns="http://www.w3.org/2000/svg" viewBox="0 0 210 120">
  <path d="M159.89,55.77h5.48c-.65-5.2-4.03-6.98-10.61-6.98-4.82,0-9.43,2.13-9.43,7.08,0,4.32,4.35,5.65,8.11,6.33,4.33.78,5.65,1.23,5.65,2.34,0,2.19-2.59,2.19-3.76,2.19-2.09,0-3.52-.51-4.04-1.8-.16-.39-.26-.87-.26-1.41h-6.6c.07,6.84,7.63,7.7,10.28,7.7,5.21,0,11.05-1.56,11.05-7.13,0-3.93-3.52-5.34-6.83-6.18-3.31-.84-7.08-.92-7.08-2.76,0-1.2,1.64-2.04,3.37-2.04,1.65.01,3.76.07,4.67,2.67"/>
  <polygon points="58.88 48.94 50.78 57.16 50.78 48.94 44.25 48.94 44.25 70.71 50.78 70.71 50.78 60.79 58.33 70.71 67.04 70.71 57.37 58.37 66.68 48.94 58.88 48.94"/>
  <g>
    <path d="M106.81,71.07c9.01,0,11.97-2.84,11.97-7.13v-14.99h-6.53v13.18c0,3.02-2.24,4.23-5.44,4.23s-5.44-1.21-5.44-4.23v-13.18h-6.53v14.99c0,4.29,2.96,7.13,11.97,7.13"/>
    <path d="M128.64,53.17l5.53.02c1.52,0,2.76,1.24,2.76,2.76s-1.23,2.76-2.76,2.76h-5.53v-5.54ZM128.64,62.97h7.8c3.87,0,7.01-3.14,7.01-7.01s-3.14-7.01-7.01-7.01h-14.33v21.76h6.53v-7.74Z"/>
  </g>
  <path d="M76,53.37h4.84c2.52,0,3.45,1.14,3.45,2.49,0,1.92-1.86,2.31-3.09,2.31h-5.2v-4.8ZM76,62.75h5.26c2.61,0,2.79,2.13,2.97,4.17.09,1.11.21,2.7.54,3.78h6.6c-.6-.99-.63-4.02-.72-5.07-.24-2.67-.63-4.84-3.81-5.7,1.41-.37,4.45-1.68,4.45-5.74s-4.72-5.27-7.56-5.27h-14.32v21.77h6.6v-7.95Z"/>
</svg>