<?xml version="1.0" encoding="UTF-8"?>
<svg id="Livello_1" data-name="Livello 1" xmlns="http://www.w3.org/2000/svg" viewBox="0 0 210 120">
  <path d="M40.92,49.06c2.81,1.02,6.03,3.44,6.81,6.53h-6.2c-1.71-1.71-4.46-2.26-6.7-1.29-2.2.85-3.75,3.14-3.77,5.51-.08,2.4,1.4,4.57,3.52,5.62,1.98,1.05,4.85.69,6.56-.74.74-.66,1.24-1.46,1.65-2.26l-6.89-.06v-4.52h12.67c.3,3.41-.25,6.53-2.23,9.03-2.76,3.5-6.78,5.1-11.21,4.35-4.11-.58-8.1-4.32-9.06-8.35-.74-3-.3-6.42,1.24-8.9,2.04-3.28,5.37-5.32,9.06-5.56,1.63-.03,3.14.14,4.54.63"/>
  <path d="M56.98,48.68l-11.98,22.37h6.78l1.57-3.39h7.27c.55,1.07,1.08,2.23,1.57,3.36h6.75l-11.96-22.34ZM54.99,64.05l2.12-4.4,1.93,4.4h-4.05Z"/>
  <path d="M154.89,48.68l-9.81,18.32v-.02l-.03-17.88h-5.87l-.02,10.44-13.67-10.25v21.76h5.74l.02-9.95.06.06,13.14,9.89,5.27-.03,1.54-3.36h7.33l1.55,3.39h6.72v-.06l-11.96-22.31ZM152.9,64.05l2.15-4.4,1.93,4.38-4.08.03Z"/>
  <polygon points="110.81 49.09 110.81 71.05 124.5 71.05 124.5 65.62 116.58 65.59 116.58 62.34 123.81 62.34 123.81 57.74 116.58 57.68 116.58 54.38 124.5 54.38 124.5 49.09 110.81 49.09"/>
  <path d="M79.46,48.7c3.33.77,7.02,3.42,8.02,6.92h-6.2c-1.65-1.68-4.22-2.26-6.45-1.43-2.09.69-3.86,2.86-3.99,5.07-.25,2.29.75,4.27,2.59,5.65,1.85,1.43,4.96,1.46,6.89.17,1.02-.61,1.71-1.65,2.21-2.65l-6.86-.06v-4.52h11.65c.66-4.16,4.41-8.27,8.57-9.12,2.7-.61,5.73-.22,8.04.99,2.23,1.18,4.69,3.39,5.26,5.9h-6.2c-1.66-1.68-4.22-2.26-6.45-1.43-2.09.69-3.86,2.86-3.99,5.07-.25,2.29.74,4.27,2.59,5.65,1.76,1.35,4.71,1.49,6.58.36,1.13-.58,2.01-1.76,2.51-2.84l-6.86-.06v-4.52h12.64c.28,3.14-.14,6.14-1.87,8.54-2.81,4.02-7.47,5.84-12.26,4.71-3.55-.72-7-3.99-8.1-7.44-1.1,3.55-4.69,6.78-8.32,7.49-4.93,1.05-9.61-.99-12.32-5.21-2.29-3.33-2.26-8.71-.03-12.06,2.67-4.25,7.41-6.23,12.34-5.18"/>
  <path d="M169.57,61.57c.11,1.71,1.18,3.47,2.86,4.05,1.43.66,3.23.28,4.44-.61,2.34-1.79,1.63-4.99,1.76-7.69v-8.24h5.54l.11,11.63c-.08,3.86-1.57,7.6-5.12,9.53-1.24.72-2.59,1.16-4.08,1.29-1.05.06-2.18.06-3.14-.19-3.22-.64-6.67-3.36-7.41-6.7-.33-1.54-.5-3.14-.52-4.79l-.03-10.77h5.56l.03,12.48Z"/>
</svg>