<?xml version="1.0" encoding="UTF-8"?>
<svg id="Livello_1" data-name="Livello 1" xmlns="http://www.w3.org/2000/svg" viewBox="0 0 210 120">
  <polygon points="45.26 54.8 40.63 54.8 31.32 70.36 50.84 70.36 53.21 66.39 38.3 66.39 45.26 54.8"/>
  <path d="M89.43,65.68c0-.23,0-.45-.01-.66h-3.44s3.44,0,3.44,0c-.11-3.28-1.01-3.88-2.61-4.58,2.05-.69,3.2-2.65,3.2-4.93,0-1.79-1.01-5.85-6.52-5.85h-10.46v20.7h4.24v-8.1h4.47c2.72,0,3.25.79,3.35,2.77h0c.02.35.02.73.02,1.15,0,2.13.18,3.2.46,4.18h4.79v-.55c-.92-.35-.92-1.1-.92-4.12ZM82.33,58.76h-5.07v-5.54h5.39c2.54,0,3.03,1.61,3.03,2.71,0,2.05-1.1,2.83-3.34,2.83Z"/>
  <polygon points="59.7 65.02 59.7 61.33 69.8 61.33 69.8 57.66 59.7 57.66 59.7 53.31 70.69 53.31 70.69 49.65 55.47 49.65 55.47 65.02 55.47 70.35 71.18 70.35 71.18 66.69 59.7 66.69 59.7 65.02"/>
  <path d="M126.81,70.35h4.15l1.5-5.33h-6.77c.31,1.49.67,3.24,1.11,5.33Z"/>
  <path d="M145.39,49.65h-4.99l-5.48,15.37-1.9,5.33h4.55l1.44-4.26h7.64l1.33,4.26h4.7l-1.88-5.33-5.42-15.37ZM142.82,54.32h.06l2.57,8.19h-5.28l2.65-8.19Z"/>
  <path d="M100.97,49.11c-2.74,0-9.95,1.18-9.95,10.89,0,2.02.31,3.67.83,5.02,1.98,5.13,6.95,5.87,9.12,5.87s7.14-.74,9.12-5.87h-4.78c-1.17,1.69-2.93,2.22-4.34,2.22s-3.17-.53-4.34-2.22h0c-.76-1.11-1.28-2.72-1.28-5.01,0-5.79,3.29-7.23,5.62-7.23s5.62,1.44,5.62,7.23c0,2.29-.51,3.9-1.28,5.01h4.78c.52-1.34.83-2.99.83-5.01,0-9.71-7.21-10.89-9.95-10.89Z"/>
  <polygon points="148.71 49.61 148.71 53.36 154.96 53.36 154.96 65.02 154.96 70.34 159.2 70.34 159.2 65.02 159.2 53.36 168.07 53.36 168.07 65.02 168.07 70.34 172.31 70.34 172.31 65.02 172.31 53.36 178.68 53.36 178.68 49.61 148.71 49.61"/>
  <path d="M132.4,49.65c-2.68,11.38-3.03,13.17-3.37,15.13h-.06c-.46-2.68-.66-3.78-3.09-15.13h-4.58c-2.2,10.87-2.51,12.97-2.89,15.13h-.06c-.38-2.36-.63-3.81-3.29-15.13h-4.61l4.34,15.36,1.51,5.33h4.03c.44-2.11.8-3.85,1.11-5.33,1.25-6.02,1.58-7.61,2.09-10.81h.06c.55,3.15.9,5.08,2.09,10.81h6.77l4.32-15.36h-4.38Z"/>
  <polygon points="32.86 53.48 47.59 53.48 40.6 65.15 45.21 65.15 54.51 49.66 35.35 49.66 32.86 53.48"/>
</svg>