<?xml version="1.0" encoding="UTF-8"?>
<svg id="Livello_1" data-name="Livello 1" xmlns="http://www.w3.org/2000/svg" viewBox="0 0 210 120">
  <path d="M52.17,65.89h2.15v-10.16l6.04,10.16h17.18v-13.08h-1.98v11.14l-6.71-11.14h-16.68v13.08ZM71.18,76.97l.12-.05c2.2-.83,4.25-2.04,6-3.62,3.87-3.49,6.12-8.55,6.12-13.76,0-10.16-8.32-18.51-18.48-18.51s-18.48,8.35-18.48,18.51c0,4.55,1.7,9,4.74,12.39,2.01,2.24,4.55,3.93,7.37,4.99l.13.05h-12.63v1.98h17.74v-2.97c-8.56-.57-15.38-7.75-15.38-16.44s7.42-16.48,16.48-16.48,16.48,7.42,16.48,16.48-6.88,15.93-15.49,16.45c0,1.07.01,2.96.01,2.96h17.89v-1.98h-12.63ZM142.09,65.89h12.7v-5.46h9.15v-2.03h-9.15v-3.36h9.15v-2.14h-21.85v12.99ZM115.82,65.89h12.69v-5.46h9.15v-2.03h-9.15v-3.36h9.15v-2.14h-21.84v12.99ZM87.58,65.89v-12.99h21.86v2.14h-9.1v3.36h9.1v2.03h-9.1v3.52h9.1v1.94h-21.86Z"/>
</svg>