<?xml version="1.0" encoding="UTF-8"?>
<svg id="Livello_1" data-name="Livello 1" xmlns="http://www.w3.org/2000/svg" viewBox="0 0 210 120">
  <path d="M170.71,51.6c-.91-.13-2.05-.21-3.39-.21h-2.57v17.21h3.98c.71,0,1.37-.06,1.98-.15,1.81-.29,3.16-1.01,4.06-2.15,1.26-1.62,1.91-3.79,1.91-6.51,0-2.57-.63-4.59-1.89-6.06-.76-.9-1.66-1.5-2.7-1.84-.4-.11-.84-.21-1.37-.29M161.67,70.91v-21.82h7.26c.63,0,1.24.02,1.79.06,1.37.09,2.51.32,3.47.67,1.33.48,2.5,1.3,3.47,2.44,1.54,1.83,2.3,4.25,2.3,7.24,0,3.37-.9,6.09-2.7,8.19-.99,1.16-2.13,1.98-3.43,2.49-.88.34-1.92.57-3.1.67-.55.06-1.12.07-1.75.07h-7.29Z"/>
  <rect x="30.05" y="49.09" width="2.9" height="21.82"/>
  <polygon points="49.78 49.09 49.78 70.91 64.88 70.91 64.88 68.6 52.88 68.6 52.88 60.68 63.89 60.68 63.89 58.42 52.88 58.42 52.88 51.39 64.63 51.39 64.63 49.09 49.78 49.09"/>
  <polygon points="82.7 49.09 82.7 66.32 71.33 49.09 68.29 49.09 68.29 70.91 70.95 70.91 70.95 54.06 81.96 70.91 85.36 70.91 85.36 49.09 82.7 49.09"/>
  <polygon points="95.77 66.38 91.29 49.09 88.3 49.09 93.93 70.91 97 70.91 102.16 52.97 107.11 70.91 109.84 70.91 115.95 49.09 113.05 49.09 108.62 66.84 103.61 49.09 100.7 49.03 95.77 66.38"/>
  <g>
    <path d="M126.63,48.54c3.1,0,5.58,1.05,7.45,3.12,1.84,2.07,2.78,4.88,2.78,8.34s-.94,6.25-2.78,8.34c-1.87,2.08-4.34,3.13-7.45,3.13s-5.58-1.05-7.45-3.13c-1.84-2.09-2.78-4.87-2.78-8.34s.94-6.27,2.78-8.34c1.87-2.07,4.34-3.12,7.45-3.12M126.63,69.14c2.17,0,3.89-.8,5.1-2.42,1.22-1.62,1.83-3.88,1.83-6.74s-.61-5.1-1.83-6.7c-1.22-1.62-2.93-2.42-5.1-2.42s-3.89.8-5.11,2.42c-1.22,1.6-1.83,3.85-1.83,6.7s.61,5.12,1.83,6.74c1.22,1.62,2.94,2.42,5.11,2.42"/>
    <path d="M148.91,48.54c3.1,0,5.58,1.05,7.45,3.12,1.84,2.07,2.78,4.88,2.78,8.34s-.93,6.25-2.78,8.34c-1.87,2.08-4.34,3.13-7.45,3.13s-5.58-1.05-7.45-3.13c-1.84-2.09-2.78-4.87-2.78-8.34s.94-6.27,2.78-8.34c1.87-2.07,4.34-3.12,7.45-3.12M148.91,69.14c2.17,0,3.89-.8,5.1-2.42,1.22-1.62,1.83-3.88,1.83-6.74s-.61-5.1-1.83-6.7c-1.22-1.62-2.93-2.42-5.1-2.42s-3.89.8-5.11,2.42c-1.22,1.6-1.83,3.85-1.83,6.7s.61,5.12,1.83,6.74c1.22,1.62,2.94,2.42,5.11,2.42"/>
    <path d="M32.98,59.52l8.63-10.44h3.29l-8.55,10.42,10.07,11.41h-3.62c-1.71-1.98-2.07-2.3-9.83-11.39"/>
  </g>
</svg>