<?xml version="1.0" encoding="UTF-8"?>
<svg id="Livello_1" data-name="Livello 1" xmlns="http://www.w3.org/2000/svg" viewBox="0 0 210 120">
  <path d="M117.63,57.09l4.62,6.9h-4.62v-6.9ZM113.96,48.98l-.02,22.02h3.68v-3.33h6.76l2.65,3.37h4.45l-14.13-22.06h-3.39ZM143.63,65.73c-2.24,1.95-5.16,1.7-5.41,1.7-2.53,0-4.55-2.29-4.7-2.45-2.91-3.43-1.13-8.25-1.07-8.37,2.26-5.13,6.94-4.36,7.15-4.35,1.56.04,4.07,1.78,4.07,1.78,0,0,.08-3.87,0-3.97-.08-.1-.3-.17-.42-.23-2.32-1.13-4.6-1.2-4.83-1.19-6.59.36-8.57,4.23-8.68,4.39-4.1,5.79-.73,12.51-.63,12.69,2.66,4.71,7.53,5.22,7.89,5.27,4.18.58,6.69-1.47,6.69-1.47,0,0,.07-3.9-.06-3.79M100.57,62.39v-13.4h-3.15l-12.82,22.04h4.42l7.44-12.02v11.96h3.16l8.72-13.09v13.11h3.68v-22h-2.88l-8.58,13.4ZM80.44,71.02h3.79v-21.88h-3.79v21.88ZM75.46,58.6c-.19-.09-2.47-1.09-3.35-1.4-.16-.06-1.27-.67-1.4-1.07-.03-.11-1.28-2.36,1.25-3.6.12-.06,1.91-.57,4.1.23.18.07,2.01,1.32,2.13,1.46.12.13.08.08.08.08l.04-4.2s-5.41-3.26-9.66-.15c-.28.21-3.1,2.16-2.15,6.84.06.29.54,2.76,4.14,3.99.15.05,3.43.98,4.24,2.51.08.15,1.25,2.67-1.34,3.89-.15.07-1.95.81-4.35-.09-.2-.08-2.66-1.02-2.72-1.11-.06-.1-.04,3.91-.04,3.91,0,0,3.91,2.8,8.85.84.19-.08,4.87-1.92,3.99-7.32-.05-.34-.36-3.2-3.79-4.79"/>
</svg>