<?xml version="1.0" encoding="UTF-8"?>
<svg id="Livello_1" data-name="Livello 1" xmlns="http://www.w3.org/2000/svg" viewBox="0 0 210 120">
  <polygon points="136.37 51.71 135.92 51.73 135.47 51.8 135.04 51.91 134.61 52.06 134.21 52.25 133.82 52.48 133.47 52.74 133.29 52.89 133.11 53.05 132.98 53.21 132.82 53.38 132.68 53.55 132.55 53.74 132.43 53.92 132.33 54.12 132.21 54.32 132.13 54.52 132.06 54.74 131.98 54.94 131.86 55.37 131.82 55.6 131.78 56.05 131.78 75.1 136.14 75.1 136.14 66.58 136.14 57.15 136.15 57.03 136.17 56.91 136.21 56.79 136.25 56.68 136.31 56.56 136.39 56.46 136.47 56.36 136.67 56.2 136.76 56.14 136.88 56.08 137.14 55.99 137.41 55.93 137.68 55.89 137.96 55.88 138.86 55.88 139.29 55.91 139.73 56 139.94 56.07 140.14 56.18 140.29 56.31 140.45 56.47 140.57 56.65 140.61 56.75 140.65 56.85 140.7 57.17 140.7 75.1 145.04 75.1 145.04 56.05 145 55.6 144.96 55.37 144.84 54.94 144.78 54.74 144.71 54.53 144.61 54.32 144.51 54.12 144.39 53.92 144.28 53.74 144.14 53.55 144 53.38 143.86 53.21 143.71 53.05 143.53 52.89 143.37 52.74 143 52.48 142.63 52.25 142.21 52.06 141.78 51.91 141.35 51.8 140.9 51.73 140.45 51.71 136.37 51.71"/>
  <polygon points="123.86 51.71 123.86 69.66 123.84 69.78 123.82 69.9 123.78 70.02 123.74 70.13 123.66 70.25 123.6 70.35 123.52 70.45 123.33 70.61 123.21 70.68 123.11 70.73 122.84 70.82 122.56 70.88 122.29 70.92 122.01 70.93 121.84 70.93 121.41 70.9 120.97 70.81 120.76 70.74 120.56 70.63 120.41 70.5 120.25 70.34 120.13 70.16 120.09 70.06 120.05 69.96 119.99 69.64 119.99 51.71 115.66 51.71 115.66 70.54 115.66 70.77 115.7 71.21 115.74 71.44 115.91 72.08 116 72.29 116.19 72.69 116.43 73.08 116.7 73.43 116.84 73.61 116.99 73.76 117.17 73.92 117.33 74.07 117.7 74.33 118.07 74.56 118.48 74.75 118.92 74.9 119.35 75.01 119.8 75.08 120.25 75.1 123.62 75.1 124.07 75.08 124.51 75.01 124.96 74.9 125.37 74.75 125.78 74.56 126.17 74.33 126.53 74.07 126.7 73.92 127.02 73.61 127.15 73.43 127.31 73.26 127.43 73.08 127.66 72.69 127.86 72.29 127.94 72.08 128 71.87 128.07 71.65 128.11 71.44 128.15 71.21 128.21 70.54 128.21 51.71 123.86 51.71"/>
  <path d="M102.54,50.57l.04-.36.04-.18.06-.16.08-.16.09-.16.1-.14.14-.13.12-.12.15-.11.16-.09.16-.08.18-.06.18-.04.35-.03h.9l.35.03.18.04.16.06.18.08.15.09.14.11.14.12.12.13.1.14.1.16.08.16.06.16.08.36v10.82h-4.57v-10.64ZM102.79,44.9l-.45.02-.45.07-.43.11-.43.15-.41.19-.37.23-.37.27-.18.15-.15.15-.16.16-.14.17-.27.36-.24.39-.2.4-.08.21-.18.65-.04.22-.02.22-.02.22v25.88h4.33v-9.91h4.57v9.9h4.35s0-25.87,0-25.87l-.02-.22-.02-.22-.04-.22-.12-.43-.08-.22-.16-.42-.12-.19-.1-.2-.12-.19-.14-.19-.14-.17-.16-.17-.15-.16-.16-.15-.18-.15-.35-.27-.39-.23-.41-.19-.41-.15-.43-.11-.45-.07-.45-.02h-4.08Z"/>
  <path d="M86.2,55.72h2.94s.2.07.2.07l.19.08.18.11.15.14.18.24.08.19.02.1.06.22v2.97l-.02.17-.06.17-.06.16-.1.15-.1.14-.14.12-.14.11-.14.08-.18.06-.16.03-.18.02h-2.75v-5.32ZM81.93,51.88v23.22h4.18v-9.76h2.74l.3.03.14.04.14.05.16.09.12.11.12.13.12.13.08.16.06.16.04.17.02.17v8.51h4.49v-8.29l-.02-.23-.04-.25-.04-.24-.06-.25-.08-.24-.1-.24-.1-.23-.12-.22-.14-.22-.14-.21-.16-.2-.18-.19-.18-.18-.18-.17-.2-.16-.22-.15-.19-.14.21-.14.24-.14.24-.17.21-.19.21-.22.2-.23.16-.25.14-.26.12-.27.09-.28.06-.22.04-.22.04-.22.02-.22.02-.23.02-.22v-3.61l-.02-.22-.02-.22-.04-.22-.04-.22-.06-.21-.06-.21-.08-.21-.2-.4-.1-.19-.12-.19-.12-.18-.14-.18-.16-.17-.14-.16-.16-.15-.18-.15-.35-.27-.39-.23-.39-.19-.41-.15-.43-.11-.45-.06-.45-.02h-8.1Z"/>
  <path d="M69.12,64.91h2.67l.28.02.25.08.12.06.12.06.1.08.1.09.1.1.08.1.08.12.06.12.04.12.04.14.02.13v3.49l-.02.13-.08.25-.06.13-.16.22-.1.1-.1.09-.1.08-.12.07-.12.06-.25.07-.28.03h-2.67v-5.96ZM69.12,55.72h2.65l.28.02.26.08.12.05.24.15.1.1.08.1.08.1.08.12.06.12.04.13.04.13.02.13v2.86l-.02.12-.04.14-.04.12-.06.12-.08.12-.08.1-.08.1-.1.1-.24.15-.12.05-.26.08-.28.02h-2.65v-5.31ZM64.96,51.87v23.22h8l.45-.02.43-.06.45-.11.41-.15.41-.19.39-.23.35-.27.18-.14.16-.16.16-.16.16-.17.14-.17.24-.37.12-.19.1-.2.1-.21.15-.42.06-.21.04-.22.04-.22.04-.22v-.22l.02-.22v-3.61l-.02-.34-.02-.26-.04-.26-.06-.26-.08-.25-.1-.25-.1-.24-.12-.24-.12-.23-.16-.22-.15-.22-.16-.2-.17-.2-.39-.36-.21-.16-.22-.15.45-.34.19-.19.2-.2.2-.22.31-.46.28-.51.1-.26.1-.27.12-.55.04-.28.02-.28v-3.55l-.04-.22-.02-.22-.06-.22-.04-.22-.08-.21-.08-.2-.08-.21-.1-.2-.12-.19-.24-.37-.28-.34-.16-.16-.16-.16-.18-.15-.35-.27-.37-.23-.41-.19-.41-.16-.43-.11-.45-.07-.43-.02h-8Z"/>
</svg>