<?xml version="1.0" encoding="UTF-8"?>
<svg id="Livello_1" data-name="Livello 1" xmlns="http://www.w3.org/2000/svg" viewBox="0 0 210 120">
  <polygon points="147.71 74.8 152.02 74.82 152 46.09 147.66 46.04 147.71 74.8"/>
  <polygon points="137.39 50.26 139.91 50.26 139.9 74.7 144.19 74.72 144.2 50.31 146.78 50.31 146.67 46.03 137.39 46.01 137.39 50.26"/>
  <polygon points="127.42 50.22 129.98 50.26 129.93 74.78 134.2 74.74 134.23 50.31 136.85 50.26 136.85 46 127.4 45.97 127.42 50.22"/>
  <polygon points="107.61 74.67 115.31 74.67 115.37 70.66 112.2 70.66 112.19 46.06 107.61 46.04 107.61 74.67"/>
  <polygon points="87.8 74.72 92.27 74.72 92.29 46.12 87.8 46.06 87.8 74.72"/>
  <g>
    <path d="M100.04,50.01c-.54,0-1,.45-1,1.03v12.08h1v4.24h-1.04v7.29h-4.32s0-22.68,0-22.68c0-3.61,2.4-6.6,5.36-6.62v4.67ZM101.05,63.12v-12.08c0-.59-.44-1.03-.99-1.03h-.02v-4.67h.04c2.98,0,5.42,2.99,5.42,6.62v22.69h-4.42v-7.3h-1.04v-4.24h1.01Z"/>
    <path d="M121.13,50.06h0c-.58,0-1.04.56-1.04,1.28v6.68h1.04v4.56h-1.06v2.52l.02,4.79c0,.71.47,1.3,1.04,1.32v4.13c-2.66,0-5.31-1.7-5.31-5.13v-19.25c0-2.84,2.38-5.17,5.3-5.17h0v4.27ZM121.13,75.34v-4.13h.04c.59,0,1.08-.59,1.08-1.32v-4.79h4.18v5.11c0,3.42-2.65,5.13-5.3,5.13M122.17,58.02v-6.68c0-.71-.46-1.28-1.04-1.28v-4.27c2.92,0,5.3,2.32,5.3,5.17v11.62h-5.3v-4.56h1.04Z"/>
  </g>
  <path d="M79.19,59.74c.39,0,.77.02,1.1,0v3.75h-1.06s-.02,7.04-.02,7.04c.37,0,.74,0,1.07,0v4.2l-5.34.02.05-28.58h5.28v4.16h-1.08l-.02,9.41ZM80.29,59.74c.64-.03,1.09-.2,1.09-.81v-7.87c0-.69,0-.73-.44-.74h-.65v-4.16h3.27c1.84,0,2.11,1.52,2.12,2.71.02,3.99,0,7.91,0,11.88.02.67-.74.86-1.18.91.44.07,1.06.7,1.06,1.26,0,3.09.06,6.28,0,9.36,0,1.08-1.04,2.43-2.07,2.42h-3.18s0-4.19,0-4.19c.65-.03,1.13-.15,1.13-.61v-5.89c-.02-.5,0-.53-.45-.55h-.68s0-3.74,0-3.74Z"/>
  <path d="M60.48,59.16v9.05c-.91-.79-1.73-1.72-2.5-2.6l2.5-6.45ZM60.48,32.53v.46c-.14.28-.12.63,0,.97v.66c-.12-.2-.23-.42-.35-.58-.2-.18-.2.05-.2.22,0,.22.27.69.55,1.01v.52c-.25-.17-.5-.54-.65-.79-.14,0-.07.29-.07.35.03.45.35.59.72.66v.3c-.93-.08-1.08-1.37-.88-1.57.13-.08.19-.06.22-.05,0,0-.02-.03-.03-.06-.27-.9.29-.86.29-1.03,0-.34-.03-.87.39-1.06M60.74,58.49v9.94c-.09-.07-.18-.14-.26-.22v-9.05l.26-.67ZM60.74,35.54v.97c-.05-.06-.12-.14-.17-.21h-.09v-.3h.02c.07-.06.07-.1.07-.16-.03-.02-.06-.04-.09-.05v-.52c.09.12.18.2.26.28M60.74,34.47v.53c-.1-.12-.18-.26-.26-.39v-.66c.06.18.15.35.26.51M60.74,32.45v.25c-.12.08-.2.18-.26.29v-.46s.07-.03.12-.04c.04-.01.1-.02.14-.04M60.99,57.85v10.79c-.08-.06-.17-.13-.25-.2v-9.94l.25-.65ZM60.99,35.63v.3h-.03c-.12.21-.08.37.03.44v.33c-.09-.04-.17-.11-.25-.19v-.97c.08.07.15.11.2.1.02,0,.03,0,.04,0M60.99,34.79v.46c-.09-.07-.18-.16-.25-.25v-.53c.07.12.16.23.25.32M60.99,32.33v.23c-.1.04-.18.08-.25.13v-.25c.09-.03.18-.07.25-.12M62.11,73.75v1.14s-.07-.06-.1-.11c-.21-.41-.13-.75.1-1.04M62.11,36.52v1.12c0,.25-.02.5-.04.74h.04v8.43c-.19.18-.3.41-.33.69-.05.43.08.76.33,1v20.89c-.39-.22-.76-.48-1.12-.76v-10.79l.85-2.19.17-.55v-4.15c0-.11-.53-.04-.64-.61-.1-.33.23-.77.57-1.14h.04v-.53c-.7-.46-.67-1.5-.11-2.02l-.05-10.07c-.35.2-.61.23-.82.12v-.33c.19.12.58.07.72-.13.12-.23.34-.09.4.28M62.11,33.24v.29c-.32.04-.57.15-.63.27-.27.6.18.78.63.76v.36c-.07.02-.14,0-.2,0,0,.12-.17.5-.53.44,0,.38-.15.58-.38.59v-.3c.08-.04.14-.14.08-.33-.03,0-.05-.03-.08-.05v-.46c.12.12.23.2.35.28.04.03.2-.12.2-.2-.03-.14-.2-.21-.22-.27-.44-.97.2-1.29.8-1.37M62.11,28.88v.87c-.23,1.12-.33,2.58-.97,2.76-.05.02-.11.03-.15.04v-.23c.76-.48.55-1.7.85-2.62.06-.24.15-.55.27-.83M62.11,37.64v-1.12,1.12ZM62.5,73.37v1.72c-.14-.03-.28-.09-.4-.2v-1.14c.11-.13.24-.27.4-.38M62.5,48.79v5.99l-.23.91.23,1.21v12.72c-.13-.07-.27-.14-.4-.22v-20.89c.11.11.25.2.4.28M62.5,38.38v.4h-.36v2.66h.36v5.07c-.15.08-.29.19-.4.3v-8.43h.4ZM62.5,34.46v.2c-.1.12-.25.23-.4.26v-.36c.14,0,.28-.04.4-.09M62.5,32.85v.65c-.13,0-.27,0-.4.02v-.29c.13-.02.26-.02.37,0l.03-.37M62.5,28.31v.33c-.18.23-.31.64-.4,1.12v-.87c.11-.26.24-.48.4-.58M62.5,34.66v-.2s.05-.03.08-.03c.12-.1.07.07-.08.23M63.44,72.79v2.1c-.32.15-.65.25-.94.2v-1.72c.29-.22.63-.41.94-.58M63.44,59.74v1.58h-.07l.07.29v8.3l-.17-.02.17.37v.83c-.21-.45-.42-.9-.64-1.33-.11-.04-.2-.1-.3-.14v-12.72l.67,3.45.27-.61ZM63.44,49.1v2.02c-.2.93-.59,1.83-.77,2.74l.77,1.58v.74l-.84-1.78-.1.38v-5.99c.27.14.59.24.94.31M63.44,35.32v.47c-.08.11-.15.2-.2.28-.03.03,0,.23,0,.34l.07,9.62s.09-.03.13-.04v.19c-.35.07-.67.18-.94.33v-5.07h.36l-.03-2.66h-.33v-.4h.33v-1.98c.06-.95.27-.45.61-1.08M63.44,28.44v1.48c-.18.79-.5,1.61-.61,1.93-.05.44-.09.93-.09,1.38.25.09.49.12.7.24v.33c-.24-.19-.59-.28-.94-.29v-.65c.03-.31.05-.62.05-.93.03-.78,1.34-3.22.46-3.45-.21-.05-.37.02-.5.17v-.33s.07-.03.1-.04c.44-.13.71-.05.84.18M63.44,29.92v-1.48c.19.31.13.88,0,1.48M63.99,72.45v2.12c-.18.12-.36.22-.55.31v-2.1c.21-.12.41-.23.55-.34M63.99,64.03v5.96l-.18-.02.04,1.03.14.35v.95c-.18-.4-.36-.8-.55-1.2v-.83l.17.36v-.69l-.17-.02v-8.3l.54,2.42h0ZM63.99,58.57v2.75h-.55v-1.58l.54-1.2v.03ZM63.99,56.56v.8l-.55-1.18v-.74l.55,1.12ZM63.99,49.18v1.65c-.2.05-.38.08-.52.08,0,.07-.02.14-.03.21v-2.02c.18.03.36.06.55.08M63.99,45.85v.23c-.19.03-.37.05-.55.1v-.19c.15-.05.32-.1.55-.14M63.99,34.16v.6c-.1.37-.35.75-.55,1.03v-.47c.05-.1.11-.22.17-.38.21-.56.1-.93-.17-1.15v-.33c.19.11.36.27.5.57.03.05.05.08.05.13M63.99,34.76v-.6c.07.19.06.4,0,.6M64.6,63.63v6.39h-.12s-.03,1.88-.03,1.88l.15.23v2.02c-.17.12-.37.28-.6.42v-2.12s.03-.03.05-.04l-.05-.12v-.95l.12.26.07-1.6-.18-.02v-5.96l.6-.4ZM64.6,59.62l-.6-1.06v2.75h.6v-1.7ZM64.6,57.79v.85l-.6-1.29v-.8l.6,1.23ZM64.6,49.23v1.41c-.21.08-.42.14-.6.19v-1.65c.2.03.41.04.6.05M64.6,43.95v1.63h-.02s-.1.24-.1.24h.12v.2c-.2,0-.4.03-.6.05v-.23s.1-.02.14-.03l.46-1.87ZM64.6,43.17h-.35v-.5h.35v.5ZM65.38,63.11v6.86h-.29c-.04.76,0,1.63-.04,2.34l.33.05v1.83c-.14-.05-.31-.12-.54-.21-.07.05-.15.11-.25.18v-2.02l.12.18.03-2.31-.16.02v-6.39l.79-.52ZM65.38,60.53l-.27.03-.52-.93v1.7h.28l.5,1.36v-2.15ZM65.38,59.4v.75l-.07.03-.72-1.54v-.85l.79,1.61ZM65.38,49.25v1.09c-.26.12-.53.21-.79.3v-1.41c.27,0,.53.02.79.02M65.38,45.83v.18c-.25,0-.51,0-.79.03v-.2h.79ZM65.38,40.87v1.48l-.07.32h.07v.44h-.2l-.09.63c.1-.05.2-.08.29-.09v.26c-.39.12-.61.92-.7,1.28v.03l.7-.27v.36h0s-.78.27-.78.27v-1.63l.19-.78h-.19v-.5h.32l.47-1.8ZM65.89,60.48v9.41l-.2.07v2.4l.2-.23v1.77c-.14.3-.25.35-.51.29v-1.83h.06s0-2.4,0-2.4h-.06v-6.86l.12-.08-.12-.35v-2.15l.51-.04ZM65.89,59.42v.5l-.51.23v-.75l.1.2.41-.19ZM65.89,49.24v.87c-.16.07-.33.15-.51.23v-1.09c.18,0,.35,0,.51-.01M65.89,45.83v.18c-.15,0-.33,0-.51,0v-.18h.51ZM65.89,44.76v.9c-.14-.03-.3-.13-.51-.34v-.36l.51-.2ZM65.89,43.81v.34c-.08-.11-.19-.2-.28-.23-.08-.03-.16-.03-.23,0v-.26c.2-.03.37.04.51.16M65.89,43.11h-.5v-.44h.5v.44ZM65.89,38.91v3.29h-.48l-.03.15v-1.48l.51-1.96ZM65.89,45.66v-.9l.1-.03c.18-.07.07-.36-.1-.58v-.34c.54.46.59,1.75.13,1.85-.05,0-.09,0-.13,0M66.59,72.95c-.11.43-.3.92-.3,1.06.12.06.21.11.3.14v-1.21ZM66.59,60.42v9.26l-.19.08v2.14l.19.07v.21c-.05-.05-.14-.05-.27,0-.44.13-.21,1.1-.37,1.57-.02.06-.04.12-.06.16v-1.77l.2-.24v-2.07l-.2.06v-9.41l.7-.06ZM66.59,59.09v.5l-.7.33v-.5l.7-.33ZM66.59,49.23v.44c-.12.12-.38.28-.7.44v-.87c.27,0,.51,0,.7,0M66.59,45.83v.2h-.07c-.12,0-.34,0-.63-.02v-.18h.7ZM66.59,43.11h-.7v-.44h.7v.44ZM66.59,37.1v5.1h-.7v-3.29l.57-2.2.12.39ZM67.2,61.59v7.76l-.21.14v3.05l.21-.03v1.53h0c-.26.17-.41.19-.61.12v-1.21c.08-.34.13-.66,0-.76v-.21l.16.06.03-2.44-.2.09v-9.26l.57-.04-.51,1.68.56-.46ZM67.2,58.81v.49l-.61.29v-.5l.61-.28ZM67.2,49.22v.81c-.2-.11-.41-.23-.61-.35v-.44c.14,0,.36,0,.61-.02M67.2,46.03h-.61v-.2h.61v.2ZM67.2,43.11h-.61v-.44h.61v.44ZM67.2,38.06v4.15h-.61v-5.1l.46,1.45.15-.49ZM67.2,43.99c-.12.14-.17.38-.12.74l.12.05v.89c-.05.01-.1.01-.15,0-.35-.08-.61-1.55.15-1.93v.25ZM67.73,61.16v7.93l-.03,3.22.03-.03v1.93c-.22-.12-.41-.2-.53-.16v-1.53l.22-.04c0-1.07-.03-2.15-.03-3.25l-.18.12v-7.76l.53-.44ZM67.73,58.57v.49l-.53.24v-.49l.53-.24ZM67.73,49.19v1.1c-.18-.09-.35-.17-.53-.27v-.81c.17,0,.35-.02.53-.03M67.73,45.83v.21c-.18,0-.36,0-.53,0v-.2h.53ZM67.73,43.11h-.53v-.44h.53v.44ZM67.73,36.39v5.82h-.53v-4.15l.53-1.67ZM67.2,44.78l.53.21v.34l-.03-.02c-.08.14-.29.31-.5.35v-.89ZM67.73,43.83c-.2-.05-.4,0-.53.16v-.25c.14-.07.32-.1.53-.08v.17ZM68.54,60.5v7.95l-.15.13-.04,3.12.19-.29v3.29c-.29-.18-.58-.37-.81-.5v-1.93l.35-.28.03-3.18-.39.27v-7.93l.81-.66ZM68.54,58.19v.48l-.81.38v-.49l.81-.37ZM68.54,49.1v1.54c-.28-.11-.54-.22-.81-.35v-1.1c.26-.03.52-.05.81-.09M68.39,45.26l-.07-.71c-.03-.38-.31-.65-.59-.72v-.17c.14,0,.31.05.5.12,0-.2-.03-.46-.03-.67h-.46v-.44h.43l-.04-.47h-.39v-5.82l.09-.28.71,6.57h0v3.41c-.28-.02-.55-.03-.81-.04v-.21h.69v-.23l-.69-.27v-.34l.66.27ZM69.35,72.91v2.14c-.28-.06-.55-.19-.81-.35v-2.26c0,.37.37.33.81.47M69.35,59.84v1.76c-.42.74-.6,1.44,0,2.19v3.9l-.35.32v2.72l.35-.67v.54c-.24.47-.46.93-.68,1.31-.08.22-.12.39-.12.52v-1l.15-.24c.03-.91.03-1.95.03-2.89l-.18.17v-7.95l.81-.66ZM69.35,57.82v.48l-.81.37v-.48l.81-.37ZM69.35,48.97v1.89c-.07-.02-.15-.03-.22-.03l-.03.16.25,2.14v2.93l-.59-5.33c-.08-.03-.15-.05-.22-.08v-1.54c.27-.03.54-.08.81-.13M69.35,45.95v.23c-.27-.04-.54-.07-.81-.1v-3.41h.68l-.03.47h-.63l.23,2.72c.14.03.34.05.55.09M70.11,73.36v1.65c-.25.11-.5.11-.76.04v-2.14c.13.05.27.11.42.2.12.08.24.16.35.24M70.11,59.51v7.56l-.08-.08-.46.41v.05l.02.07.44.46s.05,0,.08,0v1.27c-.27.42-.52.89-.76,1.36v-.57s0-2.35,0-2.35v.02s0-3.9,0-3.9c.05.06.12.13.18.2t.05.03c-.29-1.28-.18-1.72.14-3.06-.13.21-.27.42-.38.62v-1.76l.42-.35c-.03-.43-.14-.91-.14-1.33l-.27.13v-.48l.18-.09-.18-1.68v-2.93l.75,6.37h0ZM70.11,48.76v2.22c-.27-.03-.52-.08-.76-.12v-1.89c.27-.05.52-.12.76-.2M70.11,46.11v.24c-.24-.07-.5-.13-.76-.17v-.23c.23.04.5.1.76.16M70.11,50.98v-2.22c.74-.25,1.29-.63,1.29-1.21,0-.62-.55-.98-1.29-1.21v-.24c.8.21,1.59.57,1.59,1.25.17.37-.37,1.5-.83,1.5v.03c.76.61,1.54,1.45.3,2.02-.34.12-.7.12-1.06.07M70.11,69.24v-1.27c.19-.03.53-.18.53-.35l-.53-.55v-7.56c2.4,1.67,2.9,3.45,2.33,6.26.94.98.97,1.75.64,2.39-.4.74-1.5.97-2.61.56-.12.16-.25.34-.36.52M70.11,75.01v-1.65c.39.31.57.63.57,1.16-.18.26-.37.42-.57.5"/>
</svg>