<?xml version="1.0" encoding="UTF-8"?>
<svg id="Livello_1" data-name="Livello 1" xmlns="http://www.w3.org/2000/svg" viewBox="0 0 210 120">
  <path d="M175.46,61.34h.51c.18,0,.44,0,.53.25.03.12.05.35-.14.46-.09.04-.11.05-.2.06-.19.02-.46,0-.7.01v-.78ZM175.9,62.45l.66,1.1h.42l-.71-1.12c.18-.02.43-.09.56-.33.11-.24.14-.49-.03-.79-.26-.31-.47-.27-.77-.29h-.95v2.53h.38v-1.1h.43ZM174.24,61.7c.06-.18.14-.36.25-.51s.24-.29.39-.4c.47-.34,1.03-.42,1.58-.25.17.06.34.14.49.25.15.11.28.24.39.4.34.5.42,1.08.25,1.67-.06.19-.14.36-.24.51s-.24.29-.39.4c-.47.34-1.03.42-1.58.25-.18-.06-.34-.14-.49-.25-.15-.11-.28-.25-.39-.4-.33-.49-.42-1.08-.24-1.67M176.61,64.37c.22-.07.43-.18.62-.32.19-.14.35-.31.48-.49.4-.59.49-1.27.3-1.94-.07-.21-.16-.42-.3-.6-.13-.19-.3-.36-.49-.5-.6-.43-1.3-.53-2-.32-.22.07-.44.18-.63.32-.19.14-.35.31-.49.49-.41.59-.49,1.26-.3,1.94.07.22.17.42.3.61.13.19.3.36.49.49.59.43,1.31.54,2,.32M119.81,54.38c-.32,0-.65.05-.97.15-.32.1-.62.25-.9.45-.28.2-.52.44-.72.71-.59.84-.73,1.8-.44,2.72.1.3.25.6.46.88.2.27.45.52.73.72.87.61,1.83.74,2.79.45.31-.1.61-.25.88-.44.27-.2.51-.43.7-.7.6-.84.73-1.82.44-2.78-.1-.31-.25-.61-.44-.88-.2-.27-.43-.51-.7-.7-.56-.4-1.2-.59-1.83-.59M78.95,65.38c.17.06.34.14.49.24.33.24.54.57.64.88.11.33.11.7,0,1.05-.05.17-.13.33-.23.48-.11.15-.23.28-.38.38-.46.34-1.03.42-1.58.25-.18-.06-.35-.15-.51-.26-.34-.25-.55-.58-.65-.9-.11-.33-.11-.7,0-1.05.06-.17.14-.33.25-.47.11-.14.24-.27.4-.37.45-.3,1.03-.39,1.57-.23M151.45,66.36c.05-.22.13-.44.24-.64.11-.21.24-.41.39-.58.58-.64,1.28-.9,1.95-.75.12.03.23.07.33.12.1.05.19.11.26.18.46.45.36.91.19,1.38-.05.12-.11.24-.2.38-.09.14-.21.29-.37.47-.16.18-.38.4-.76.7-.38.31-.92.7-1.47,1.08-.29-.4-.49-.78-.56-1.13-.08-.36-.07-.78.02-1.2M108.83,64.1c-.18.15-.28.24-.39.15-.06-.08-.07-.12-.1-.22-.02-.06-.03-.13-.05-.24-.02-.11-.04-.26-.07-.57-.02-.3-.04-.76-.04-1.21.02-.68.09-1.37.24-2.2s.37-1.83.61-2.65c.23-.82.46-1.47.67-1.98.21-.51.4-.87.56-1.16.16-.28.3-.48.43-.63.4-.49.77-.68,1.11-.68.04,0,.09,0,.13,0,.14.02.31.14.37.26.08.13.11.23.15.39.02.1.04.22.06.39.02.17.02.4.02.62-.02.57-.07,1.14-.18,1.77-.11.63-.26,1.33-.42,1.91-.16.58-.32,1.04-.56,1.62-.24.58-.57,1.26-.89,1.88-.32.61-.63,1.15-.86,1.52-.23.37-.38.58-.5.73-.12.15-.2.23-.26.29M105.91,71.91c.32.32.66.56,1.02.76,1.28.7,2.74.71,4.15.32.58-.16,1.18-.39,1.78-.69.61-.3,1.23-.66,1.87-1.09.64-.43,1.29-.93,1.91-1.47.45.69.95,1.34,1.39,1.84.44.49.82.82,1.17,1.06.68.47,1.3.65,1.94.66.31,0,.6-.04.93-.13.63-.17,1.43-.64,2.2-1.31l2.62-2.28s.04-.02.12-.09c.08-.07.22-.19.32-.27.14-.11.16-.13.24-.18.12-.04.16.05.25.15.04.04.08.1.14.2s.14.23.21.37l1.39,2.34c.1.17.23.33.37.48.44.44,1.04.7,1.53.69.35,0,.71-.08,1.06-.27.35-.18.79-.55,1.21-1.07l1.89-2.28c.16-.19.32-.37.43-.49.2-.2.26-.23.37-.29.22-.1.49-.06.67.13.04.04.1.09.22.26.12.16.31.44.48.73l1.06,1.56c.22.33.47.63.69.86.46.48.78.66,1.16.83.2.08.42.15.7.19.28.04.62.07.95.07.44,0,.88,0,1.24-.05.36-.03.64-.09,1.44-.32.8-.23,2.13-.64,3.44-1.08.57.39,1.18.72,1.69.95.51.23.93.35,1.49.43.56.08,1.25.13,1.95.12,1.27,0,2.55-.14,3.75-.37,1.2-.24,2.33-.58,3.43-1.01,1.11-.44,2.19-.96,3.23-1.56.71.7,1.47,1.36,2.01,1.78s.86.59,1.18.72.61.23,1.02.3c.4.07.91.1,1.36.1.45,0,.83-.02,1.25-.06.84-.09,1.82-.28,2.76-.58.48-.15.95-.33,1.37-.51.42-.18.77-.37,1.06-.54.29-.17.5-.33.65-.46.16-.13.26-.24.33-.33.27-.34.19-.6.07-.9-.06-.13-.2-.27-.33-.33-.15-.08-.29-.12-.47-.15-.11-.02-.24-.03-.43-.03-.19,0-.43,0-.82.03-.4.03-.95.08-1.33.11-.38.03-.59.04-.79.03-.62,0-1.24-.13-1.92-.42-.21-.09-.41-.2-.58-.3-.17-.11-.32-.21-.44-.32-.53-.46-.72-.96-.44-1.36.03-.05.07-.1.23-.24.16-.13.43-.34.71-.54l3.12-2.39-1.39-1.73-4.4,2.89-1.89-3.01h-6.91l3.56,6.51c-.69.36-1.41.67-2.05.88-1.26.41-2.31.51-3.46.52-.24,0-.47-.01-.7-.04-.22-.02-.43-.06-.7-.14-.27-.08-.61-.2-.94-.33.87-.55,1.71-1.13,2.23-1.53.52-.39.71-.59.86-.77.32-.37.46-.64.57-.97.13-.36.19-.82.19-1.3,0-.3-.04-.61-.11-.89-.07-.28-.18-.55-.33-.79-.14-.24-.32-.46-.54-.67-.22-.2-.47-.38-.78-.54-.3-.15-.65-.28-1.04-.37-.39-.09-.83-.14-1.34-.13-.51,0-1.08.06-1.66.17-.58.11-1.16.29-1.7.5-.55.22-1.06.48-1.51.77-.46.29-.86.61-1.21.94-1.52,1.49-1.95,3.02-1.84,4.55.01.14.03.28.08.48.05.21.13.49.23.76-.38,0-.76-.02-1.03-.05-.28-.03-.45-.07-.6-.12-.43-.14-.74-.34-1.08-.72-.12-.14-.26-.32-.46-.64-.2-.32-.44-.78-.68-1.25l-1.34-2.61c-.18-.36-.37-.71-.53-.96-.16-.25-.28-.4-.38-.52-.57-.62-1.01-.68-1.54-.7-.26,0-.53.02-.74.06-.22.04-.39.1-.56.18-.17.08-.33.19-.54.34-.2.15-.44.35-1.04,1.05-.6.71-1.55,1.92-2.47,3.15l-1.34-2.89c-.15-.31-.32-.61-.51-.86-.19-.24-.38-.43-.59-.58-.75-.54-1.69-.59-2.51-.22-.13.06-.27.13-.42.22-.15.09-.3.2-.48.35-.18.15-.37.32-.62.59s-.55.61-.99,1.21c-.44.6-1.03,1.44-1.41,1.95-.38.5-.55.67-.69.78-.32.27-.51.35-.74.36-.2,0-.39-.09-.56-.29-.06-.06-.11-.14-.18-.24-.07-.11-.14-.24-.24-.47-.1-.24-.23-.58-.4-1.13-.18-.56-.41-1.34-.58-1.84-.17-.5-.28-.71-.37-.88-.09-.17-.17-.29-.24-.39-.07-.1-.14-.18-.2-.24-.53-.53-1.03-.49-1.51-.25-.11.06-.23.14-.37.26-.15.12-.32.27-.66.76-.33.49-.84,1.31-1.24,1.92-.4.61-.71,1.02-.97,1.31-.26.3-.46.5-.66.66-.72.62-1.41.87-2.08.96-.32.04-.77.04-1.19,0-.2-.02-.36-.06-.5-.1-.28-.08-.5-.18-.72-.35-.11-.08-.22-.18-.34-.32-.12-.14-.26-.33-.38-.53,1.58-1.95,3.06-4.01,3.98-5.49.92-1.48,1.29-2.39,1.58-3.22.29-.83.48-1.57.6-2.29.13-.72.18-1.43.18-2.01,0-.58-.05-1.04-.16-1.46-.11-.42-.27-.82-.48-1.17-.21-.35-.46-.65-.75-.9-.29-.25-.61-.44-.94-.57s-.67-.19-1.04-.19c-.36,0-.76.04-1.16.14-.41.09-.84.24-1.28.45-.45.21-.92.49-1.42.86-.5.37-1.02.84-1.56,1.42-.54.58-1.09,1.28-1.62,2.11-.54.82-1.06,1.77-1.44,2.7-.38.93-.64,1.83-.81,2.93-.17,1.1-.27,2.4-.26,3.7,0,.56.02,1.13.06,1.64.04.51.09.97.15,1.38.07.42.14.79.23,1.15-.27.22-.56.42-.81.58-.25.15-.47.26-.67.33-.2.08-.37.13-.53.15-.16.03-.3.04-.42.05-.29,0-.49-.05-.72-.19-.14-.09-.27-.21-.41-.39-.07-.1-.15-.21-.23-.37-.08-.15-.16-.35-.23-.55l-1.95-5.73-5.96,1.45,1.22,4.62c-.36.17-.73.32-.97.41-.24.09-.35.11-.43.13-.2.03-.36.04-.58-.03-.13-.05-.23-.13-.34-.28-.04-.06-.09-.13-.19-.36-.1-.23-.25-.6-.39-.98l-1.17-2.89c-.09-.23-.22-.46-.33-.64-.24-.38-.46-.56-.7-.7-.12-.07-.26-.12-.41-.16-.15-.04-.33-.06-.55-.06-.21,0-.47.03-.72.08-.26.06-.52.15-.83.29s-.67.33-1.2.71-1.25.94-1.94,1.53c-.46-.59-.96-1.15-1.38-1.55-.82-.77-1.34-1.03-1.98-1.28-.65-.24-1.4-.35-2.16-.35-.87,0-1.79.11-2.67.47-.63.27-1.29.67-1.88,1.46-.15.19-.29.41-.45.7-.16.29-.34.66-.55,1.25-.21.6-.46,1.43-.64,1.94-.18.51-.29.7-.39.85-.42.6-.77.62-1.11.63-.4,0-.86-.11-1.21-.5-.09-.09-.19-.21-.29-.37-.11-.16-.24-.37-.42-.74-.18-.37-.42-.91-.63-1.46l-1.84-4.73c-.15-.39-.32-.77-.49-1.08-.17-.3-.34-.52-.5-.7-.58-.61-1.06-.71-1.63-.73-.21,0-.44.02-.64.05-.39.07-.66.2-.97.41-.16.11-.33.25-.54.46-.21.2-.46.47-1.03,1.29-.57.82-1.47,2.19-2.33,3.58l-2.73-8.52c-.11-.34-.23-.68-.34-.95-.11-.26-.22-.46-.32-.62-.1-.16-.19-.29-.29-.39-.57-.64-1.1-.7-1.62-.71-.15,0-.31,0-.44.03-.35.05-.62.16-.9.41-.09.08-.17.17-.27.3-.1.13-.21.29-.41.71-.2.42-.48,1.09-.75,1.78l-3.01,7.74-3.79-14.37c-.14-.51-.31-1.02-.5-1.43-.19-.42-.39-.74-.6-1.01-.21-.27-.43-.48-.68-.65-.24-.17-.5-.3-.8-.39-.88-.26-2.06-.2-3.08.51-.33.22-.66.51-1,.91-.34.4-.68.9-1.07,1.64-.78,1.45-1.65,3.81-2.01,5.86-.19,1.01-.28,1.93-.29,2.85,0,.14,0,.29.02.4.05.29.09.53.34.77.26.21.53.23.86.2.26-.02.6-.25.75-.5.05-.07.1-.15.15-.25.05-.1.1-.21.15-.37.06-.16.12-.36.2-.76.07-.4.16-1.01.24-1.58.08-.57.16-1.11.23-1.45.07-.34.12-.49.17-.61.05-.11.08-.2.12-.26.07-.11.12-.19.23-.28.13-.09.24-.12.37-.12.13-.02.3.06.34.18.02.03.03.07.06.13.02.06.06.14.14.46.08.31.21.86.34,1.41l3.23,13.64c.14.59.33,1.16.51,1.63.19.46.39.81.59,1.09.2.28.41.49.62.66.63.49,1.38.61,2.18.45.4-.09.75-.26,1.12-.55.19-.15.38-.33.59-.58.21-.24.44-.55.7-.98.26-.43.55-.98.79-1.47.24-.5.44-.93.68-1.49s.55-1.26.84-1.89c.29-.63.56-1.19.85-1.75.04.11.08.21.12.34.04.12.09.26.37,1.05.27.79.77,2.24,1.13,3.23.36.99.58,1.53.78,1.95s.4.75.59,1.01c.56.77,1.06,1.06,1.57,1.2.51.12,1,.08,1.46-.1.33-.13.63-.32.96-.63.18-.16.37-.37.6-.65.23-.28.5-.64.97-1.51.47-.86,1.14-2.23,1.76-3.61l1.67,3.84c.2.46.46.89.74,1.24.29.35.6.64.94.86.34.23.71.39,1.11.51.4.11.84.17,1.27.17.59-.02,1.18-.12,1.82-.31.65-.2,1.35-.48,2.07-.85.72-.37,1.44-.81,2.12-1.29.44.45.9.88,1.28,1.19.77.61,1.23.81,1.82,1.02.29.1.6.17.98.22.37.05.82.07,1.16.08.34,0,.58,0,.81-.03,1.31-.13,2.6-.44,3.81-1.84.16-.19.34-.41.55-.78.21-.37.47-.9.68-1.36s.39-.86.53-1.09c.13-.24.21-.31.29-.37.27-.22.51-.18.75-.05.06.04.13.09.21.16.08.07.16.17.29.35s.27.45.52.96c.25.51.59,1.26.84,1.74.25.49.42.71.56.9.15.19.28.33.4.46.74.72,1.4.88,2.1.9.81,0,1.53-.13,2.26-.44.37-.16.77-.36,1.35-.79.58-.43,1.35-1.08,2.07-1.77.53.65,1.1,1.28,1.5,1.69.4.41.65.61.87.76.46.31.77.42,1.16.5.2.04.42.06.65.06.52-.02,1.04-.11,1.67-.3,1.26-.38,2.98-1.22,4.54-2.31.26.41.56.8.89,1.11"/>
</svg>